<?xml version="1.0" standalone="no"?>
<!DOCTYPE svg PUBLIC "-//W3C//DTD SVG 20010904//EN"
 "http://www.w3.org/TR/2001/REC-SVG-20010904/DTD/svg10.dtd">
<svg version="1.0" xmlns="http://www.w3.org/2000/svg"
 width="500.000000pt" height="500.000000pt" viewBox="0 0 500.000000 500.000000"
 preserveAspectRatio="xMidYMid meet">
<metadata>
Created by potrace 1.14, written by Peter Selinger 2001-2017
</metadata>
<g transform="translate(0.000000,500.000000) scale(0.100000,-0.100000)"
fill="#000000" stroke="none">
<path d="M2438 4318 c-59 -34 -70 -77 -70 -278 0 -151 2 -174 21 -213 26 -53
65 -77 127 -77 54 0 106 29 125 70 17 37 21 127 6 137 -37 23 -81 1 -83 -41
-1 -51 -15 -76 -44 -76 -50 0 -55 18 -56 196 -2 177 5 208 46 210 39 2 56 -26
59 -98 1 -22 56 -34 78 -17 19 17 12 108 -11 145 -40 60 -132 80 -198 42z"/>
<path d="M2068 4304 c-3 -2 -27 -7 -53 -10 -27 -2 -54 -9 -60 -14 -12 -10 -12
-56 -1 -115 4 -16 9 -50 12 -75 3 -25 7 -52 9 -60 2 -8 7 -40 11 -70 3 -30 8
-66 10 -80 2 -14 6 -41 9 -60 14 -109 18 -117 57 -111 3 0 28 2 55 4 59 4 112
29 138 65 21 28 25 110 10 197 -3 22 -8 54 -10 70 -3 17 -7 49 -10 73 -3 23
-9 52 -14 65 -5 12 -8 24 -8 27 3 16 -41 71 -62 79 -34 12 -87 21 -93 15z m54
-111 c18 -21 25 -43 32 -98 3 -22 7 -56 10 -75 3 -19 8 -55 11 -80 3 -25 7
-55 9 -68 2 -13 -4 -31 -13 -41 -17 -20 -70 -37 -72 -24 0 5 -2 17 -4 28 -3
19 -13 94 -19 145 -3 24 -12 82 -23 145 -14 87 -15 85 21 85 19 0 39 -7 48
-17z"/>
<path d="M2944 4302 c-13 -8 -27 -40 -79 -172 -21 -52 -41 -99 -45 -105 -5 -5
-8 -14 -8 -18 0 -7 -28 -82 -57 -152 -33 -78 -35 -94 -14 -106 48 -25 68 -6
117 114 10 23 16 27 39 21 16 -3 34 -6 41 -6 13 -1 13 -1 16 -78 3 -67 15 -92
49 -96 50 -5 52 15 32 266 -1 19 -6 80 -9 135 -11 154 -14 186 -19 191 -9 9
-52 13 -63 6z m-2 -310 c-4 -27 -7 -30 -23 -21 -14 7 -16 14 -10 27 6 9 13 31
17 47 l7 30 7 -25 c4 -14 5 -40 2 -58z"/>
<path d="M3288 4206 c-70 -37 -102 -150 -63 -225 8 -17 15 -34 14 -37 0 -4 4
-10 9 -13 23 -15 72 -107 72 -137 0 -52 -51 -79 -87 -46 -18 17 -20 31 -8 85
6 30 -16 63 -35 52 -5 -3 -10 -1 -10 4 0 8 -6 7 -19 -1 -41 -26 -50 -150 -14
-191 30 -33 92 -56 144 -53 40 3 53 9 79 37 65 72 61 149 -15 268 -46 71 -55
89 -55 111 0 35 27 70 54 70 31 0 58 -32 52 -61 -3 -13 -7 -34 -10 -46 -5 -25
25 -53 57 -53 43 0 62 128 27 184 -23 38 -49 53 -110 64 -36 7 -52 4 -82 -12z"/>
<path d="M1616 4190 c-76 -41 -88 -115 -43 -255 14 -44 34 -111 46 -148 36
-121 85 -164 174 -153 42 4 57 12 87 45 35 37 37 43 34 93 -4 65 -8 85 -17 94
-4 4 -7 15 -7 24 0 28 -78 260 -92 273 -49 50 -123 60 -182 27z m103 -80 c5 0
18 -33 30 -72 12 -40 25 -80 28 -88 3 -8 7 -19 8 -25 2 -5 11 -37 21 -70 32
-108 18 -140 -58 -126 -8 1 -41 61 -34 61 3 0 -1 15 -9 34 -8 18 -16 44 -19
57 -3 13 -15 60 -29 105 -13 44 -21 89 -17 99 7 21 38 36 58 29 8 -2 17 -4 21
-4z"/>
<path d="M3643 4119 c-13 -5 -23 -12 -24 -16 0 -4 -2 -17 -4 -27 -2 -12 5 -26
18 -35 21 -15 25 -17 47 -20 16 -2 12 -14 -36 -118 -25 -54 -60 -127 -76 -163
-16 -36 -40 -87 -53 -115 -25 -54 -21 -79 15 -90 20 -6 60 10 60 25 0 5 14 39
32 77 18 37 33 70 33 73 1 3 22 48 47 101 25 53 49 105 52 116 12 37 30 45 65
27 17 -9 38 -13 47 -10 17 7 37 53 28 68 -4 5 -50 30 -103 55 -53 25 -103 48
-111 53 -8 4 -25 4 -37 -1z"/>
<path d="M1202 4025 c-38 -18 -72 -37 -75 -42 -5 -8 62 -161 200 -455 30 -65
40 -71 82 -57 37 13 35 32 -19 142 -45 92 -47 103 -21 112 11 3 36 21 56 40
30 26 38 43 42 78 9 77 -63 203 -119 209 -61 6 -83 2 -146 -27z m128 -70 c17
-11 46 -79 42 -100 -4 -25 -46 -57 -64 -49 -7 2 -26 33 -41 67 l-28 61 23 17
c21 16 46 18 68 4z"/>
<path d="M3218 3445 c-21 -8 -38 -11 -38 -8 0 3 -6 0 -14 -6 -8 -7 -22 -13
-32 -15 -21 -4 -110 -32 -252 -78 -51 -16 -98 -31 -105 -32 -7 -1 -25 -7 -42
-13 -47 -18 -209 -66 -222 -66 -7 0 -13 -4 -13 -9 0 -5 -4 -7 -9 -4 -4 3 -17
-4 -27 -15 -19 -22 -19 -17 -23 -334 -1 -16 0 -84 2 -150 1 -66 -1 -135 -4
-152 -4 -18 -4 -33 0 -33 7 0 6 -184 -2 -205 -4 -8 -3 -16 2 -19 8 -5 6 -100
-3 -114 -2 -4 -1 -14 4 -22 4 -7 4 -24 0 -36 -5 -13 -6 -25 -2 -28 9 -5 8 -59
-2 -74 -3 -6 -3 -13 2 -16 4 -2 7 -17 6 -33 -1 -27 -3 -28 -50 -29 -108 -2
-180 -72 -178 -174 2 -164 200 -226 300 -94 l29 37 5 565 5 566 85 27 c102 32
323 102 330 104 3 1 21 5 40 9 19 5 40 11 45 15 6 3 12 6 15 6 3 1 37 11 76
23 39 12 73 22 75 22 2 0 4 -145 3 -323 0 -275 -2 -321 -15 -319 -59 15 -127
-7 -170 -55 -35 -38 -46 -70 -43 -119 8 -149 171 -215 283 -115 57 50 57 42
55 701 -2 565 -4 605 -20 617 -22 16 -48 16 -96 -2z m7 -191 l0 -73 -58 -21
c-31 -12 -66 -23 -77 -25 -10 -2 -28 -9 -39 -15 -12 -6 -21 -9 -21 -6 0 3 -26
-4 -57 -15 -52 -18 -76 -25 -108 -32 -5 -2 -23 -8 -40 -14 -33 -12 -142 -45
-149 -45 -3 0 -29 -8 -58 -19 -29 -10 -56 -19 -61 -19 -4 0 -7 34 -5 76 l3 77
130 40 c72 21 139 43 150 48 11 4 61 20 110 34 50 15 117 36 150 47 33 10 68
21 79 23 10 3 20 6 22 8 2 2 10 4 17 4 9 0 12 -21 12 -73z"/>
<path d="M2140 3077 c-12 -16 -15 -46 -15 -111 1 -74 4 -91 20 -102 24 -18 46
-18 70 0 15 11 19 28 20 97 1 107 -12 139 -60 139 -11 -1 -27 -11 -35 -23z"/>
<path d="M863 3077 c-5 -7 -9 -183 -9 -392 l1 -380 68 -3 67 -3 0 160 0 159
93 4 c71 2 103 8 139 26 104 51 157 126 153 217 -6 123 -97 201 -246 210 -39
3 -75 7 -80 10 -5 4 -9 3 -9 -2 0 -9 -131 -9 -154 0 -8 3 -19 0 -23 -6z m310
-121 c27 -11 79 -66 62 -66 -2 0 0 -11 5 -25 6 -15 6 -26 -1 -30 -5 -4 -7 -10
-4 -14 2 -5 -11 -24 -30 -44 -36 -37 -73 -48 -167 -51 l-48 -2 0 123 0 123 75
0 c42 0 90 -6 108 -14z"/>
<path d="M3707 3071 c-2 -3 -3 -177 -3 -386 l1 -380 65 0 65 0 0 156 0 157 95
4 c78 3 104 9 146 31 42 21 135 97 120 97 -2 0 4 16 14 37 33 68 5 171 -61
227 -61 52 -91 59 -272 61 -92 1 -169 0 -170 -4z m333 -123 c62 -42 65 -126 7
-179 -34 -32 -72 -42 -157 -42 l-55 -1 -1 115 c0 63 1 117 3 122 2 4 41 7 87
7 70 0 88 -4 116 -22z"/>
<path d="M1851 2901 c-20 -20 -21 -33 -21 -186 0 -162 0 -165 24 -180 28 -19
71 -7 79 22 11 38 5 322 -6 336 -21 27 -54 30 -76 8z"/>
<path d="M2142 2783 c-78 -32 -73 -143 8 -177 101 -42 177 102 88 166 -38 27
-53 28 -96 11z"/>
<path d="M1593 2689 c-11 -4 -24 -12 -27 -18 -6 -9 -10 -122 -7 -193 1 -33 25
-58 55 -58 40 0 51 26 53 124 2 129 -17 166 -74 145z"/>
<path d="M2139 2513 c-12 -23 -14 -68 -13 -242 1 -195 3 -216 20 -228 26 -19
61 -16 76 6 19 28 18 451 -1 475 -22 26 -64 20 -82 -11z"/>
<path d="M1846 2421 c-18 -20 -23 -165 -7 -190 13 -20 69 -18 84 3 8 11 13 44
12 85 -1 74 -11 111 -28 112 -7 0 -20 2 -29 4 -9 2 -24 -5 -32 -14z"/>
<path d="M1339 1723 c-9 -10 -30 -52 -49 -93 -18 -41 -50 -111 -70 -155 -21
-44 -54 -116 -74 -159 -20 -44 -35 -86 -34 -95 4 -18 46 -41 63 -35 7 3 31 46
55 97 56 120 55 120 90 102 32 -17 85 -22 118 -11 44 14 85 70 107 142 25 84
1 132 -91 180 -82 44 -98 48 -115 27z m104 -129 c25 -24 25 -26 10 -62 -22
-55 -41 -72 -75 -68 -50 6 -54 18 -23 90 31 74 47 81 88 40z"/>
<path d="M3581 1693 c-12 -8 -21 -19 -21 -24 0 -11 37 -98 97 -228 93 -201 97
-218 51 -237 -52 -23 -54 -20 -217 338 -35 77 -54 93 -88 71 -31 -20 -29 -37
12 -122 19 -39 35 -73 35 -75 0 -7 89 -199 107 -231 55 -100 158 -110 245 -23
28 28 35 96 15 145 -8 21 -33 76 -54 123 -22 47 -57 123 -78 170 -20 47 -41
89 -46 94 -14 15 -36 15 -58 -1z"/>
<path d="M1674 1583 c-6 -5 -15 -21 -19 -38 -5 -16 -9 -32 -10 -35 -1 -3 -7
-25 -14 -50 -21 -74 -42 -144 -51 -165 -9 -22 -56 -185 -65 -226 -8 -32 4 -42
80 -65 33 -9 62 -18 65 -19 45 -14 61 -15 79 -5 23 12 28 52 9 67 -13 10 -80
35 -106 39 -25 4 -26 14 -8 70 9 30 19 63 21 72 2 9 25 86 51 171 51 163 51
183 3 189 -13 1 -29 -1 -35 -5z"/>
<path d="M3115 1521 c-13 -15 -14 -41 -10 -172 9 -295 16 -404 26 -416 12 -13
44 -9 66 8 11 9 13 30 11 85 -4 66 -2 73 16 81 48 21 67 11 100 -52 27 -51 36
-60 62 -63 19 -2 36 3 44 12 14 17 0 52 -85 204 -23 43 -67 126 -99 187 -31
60 -62 115 -67 121 -17 20 -47 23 -64 5z m104 -258 c8 -21 16 -44 18 -50 6
-16 -23 -17 -33 -1 -10 16 -14 88 -5 88 4 0 13 -17 20 -37z"/>
<path d="M2109 1484 c-1 -2 -2 -7 -4 -11 -1 -5 -5 -17 -10 -28 -46 -113 -66
-166 -67 -175 0 -3 -8 -21 -18 -40 -10 -19 -19 -39 -20 -45 -1 -5 -7 -21 -12
-35 -5 -14 -19 -50 -30 -80 -11 -30 -26 -71 -33 -90 -16 -42 -2 -63 41 -66 21
-1 29 6 41 35 45 109 53 123 65 114 7 -6 24 -9 36 -8 28 2 30 -1 36 -85 5 -66
20 -90 57 -90 29 0 40 25 35 77 -7 61 -16 177 -22 251 -2 31 -6 82 -9 112 -3
30 -7 74 -9 98 -2 24 -8 48 -13 53 -10 10 -62 20 -64 13z m2 -337 c-8 -8 -14
-8 -21 -1 -7 7 -5 28 7 65 l18 54 3 -54 c2 -30 -2 -59 -7 -64z"/>
<path d="M2875 1482 c-3 -4 -16 -7 -28 -8 -67 -4 -143 -17 -154 -26 -8 -6 -11
-24 -8 -47 3 -20 7 -58 10 -86 4 -27 8 -63 11 -80 3 -16 7 -50 9 -75 2 -25 6
-61 10 -80 4 -19 8 -53 10 -75 6 -72 17 -120 29 -128 6 -4 29 -5 51 -2 22 3
65 8 95 12 30 3 63 10 73 15 19 10 24 63 6 73 -13 9 -69 13 -69 6 0 -3 -20 -7
-45 -9 -31 -1 -45 2 -46 10 0 7 -2 20 -3 28 -2 8 -6 39 -10 68 -6 46 -4 52 11
53 10 1 35 3 55 4 49 3 68 19 62 52 -8 42 -12 44 -82 41 -61 -3 -67 -1 -68 17
-1 11 -5 44 -8 73 -5 38 -4 53 6 57 15 5 85 14 111 15 25 0 42 42 28 67 -11
21 -45 36 -56 25z"/>
<path d="M2318 1449 c-21 -12 -24 -62 -5 -76 6 -6 27 -9 45 -7 26 2 33 -2 37
-19 2 -12 3 -122 2 -245 -2 -123 -1 -225 3 -227 15 -9 58 -13 69 -6 9 6 13 74
16 245 3 130 7 241 9 245 3 5 22 7 41 4 21 -2 41 2 48 9 14 15 14 55 0 69 -14
14 -243 20 -265 8z"/>
</g>
</svg>
